_________________________  Visit us at _________________________
  
http://p2pdl.com  ____________________________  http://p2pdl.com


Stand Off 2011 BRRip 720p x264 AAC - PRiSTiNE


Original Title: Whole Lotta Sole
Genre: Comedy | Drama
Plot: The story centers on a botched fish market robbery that leads to the involvement of the local
police and a gangster out for revenge. 
Director: Terry George
Stars: Brendan Fraser, Colm Meaney, Martin McCann.
Rated: R for language.


Info: 
http://www.imdb.com/title/tt1545328/

Trailer:


Format                         : MPEG-4
File size                      : 566 MiB
Duration                       : 1h 29mn
Video Format                   : AVC
Video Bit rate                 : 800 Kbps
Width                          : 1 280 pixels
Height                         : 688 pixels
Display aspect ratio           : 1.85:1
Frame rate mode                : Constant
Frame rate                     : 23.976 fps
Stream size                    : 511 MiB (90%)
Writing library                : x264 core 130 r2273
Audio Format                   : AAC
Audio Bit rate                 : 83.8 Kbps
Channel(s)                     : 2 channels
Channel positions              : Front: L R
Sampling rate                  : 48.0 KHz
Stream size                    : 53.5 MiB (9%)
Language                       : English
Subtitle                       : Yes(English)
Source                         : LIMITED.720p.BluRay.x264-IGUANA(Thanks)

Screenshots:
 
http://ultraimg.com/images/GRV.jpg 
http://ultraimg.com/images/weY3y.jpg 
http://ultraimg.com/images/SBoi2.jpg 
http://ultraimg.com/images/EGT5Z.jpg 
http://ultraimg.com/images/sPXpU.jpg 
http://ultraimg.com/images/bToks.jpg


----------------------------------------------------------------------------------------------------


Encoded using revolutionary 10bit encoding, which enables us to provide you more crispier 
and sharper images at small sizes, just make sure you follow our instructions without a fault.
Recommend to you to use latest version of VLC player. Install K-Lite Codec Pack or shark007 codecs
in case of any kind of problem in playback (For non-VLC Media Player users). Alternatively, install
Core AVC codecs, the fastest decoder that there is coupled with Community Center Codec Pack and play
on Windows Media Player Classic. Check sample to be sure.
Enjoy!

Encoder Notes: Encoder Notes: Looking For Early Access To Anything You Can Provide DVDScr, R5, DVDR, BluRay, Direct
Audio, Music Releases and Seedboxes. We require dedicated servers, so as to do more and fast releases of movies.
If You Got anything to offer contact us at "prg@hush.com".
Fan Page: 
www.fb.me/p2pdl